<?xml version="1.0" encoding="utf-8"?>
<!-- Generator: Adobe Illustrator 24.2.3, SVG Export Plug-In . SVG Version: 6.00 Build 0)  -->
<svg version="1.1" xmlns="http://www.w3.org/2000/svg" xmlns:xlink="http://www.w3.org/1999/xlink" x="0px" y="0px"
	 viewBox="0 0 368.1 206.6" style="enable-background:new 0 0 368.1 206.6;" xml:space="preserve">
<style type="text/css">
	.st0{fill:#002F6C;}
</style>
<g id="Layer_1">
</g>
<g id="Layer_2">
	<g>
		<path class="st0" d="M83,43.3L82.8,43L75,46.6l0.9,2l5.6-2.6c0.3,1.2,0.2,2.4-0.4,3.5c-0.6,1.2-1.6,2.2-2.9,2.8
			c-1.5,0.8-3.3,0.8-4.8,0.2c-1.6-0.7-2.9-2.1-3.6-3.7c-0.8-1.6-1-3.4-0.5-5.2c0.4-1.5,1.5-2.8,3-3.5c1.1-0.5,2.3-0.6,3.5-0.4
			c0.6,0.1,1.2,0.3,1.7,0.6c0.6,0.4,1.1,0.8,1.6,1.3l0.2,0.2l1.8-0.8l-2.2-4.8l-1.9,0.9l0.3,0.6c-1.9-0.7-4-0.6-5.8,0.3
			c-2,0.9-3.6,2.7-4.2,4.8c-0.7,2.3-0.5,4.7,0.6,6.8c0.9,2.2,2.7,4,4.9,4.9c1,0.4,2,0.6,3,0.6c1.3,0,2.5-0.3,3.6-0.8
			c2-0.8,3.5-2.4,4.3-4.5c0.4-1,0.5-2.1,0.4-3.1C83.8,45.5,83.5,44.4,83,43.3z"/>
		<polygon class="st0" points="110.2,40.3 108.7,34.8 114.8,33.1 114.3,31 108.1,32.7 106.7,27.6 113.4,25.7 114.2,28.5 116.2,28 
			114.8,23.1 102,26.6 102.6,28.7 104.5,28.2 108.6,43 119.5,40.1 118.9,38 		"/>
		<path class="st0" d="M155.7,16.1l-4.1,0.5l1.6,13.2c-0.6-0.7-1.1-1.4-1.7-2.1c-0.8-1-1.6-2.1-2.5-3.1s-1.8-2.2-2.6-3.3
			s-1.8-2.3-2.7-3.5l-0.1-0.2l-4.4,0.5l0.3,2.2l2-0.3l1.9,15.3l4.2-0.5l-0.3-2.2l-2.1,0.3l-1.4-11.4l10,12.7l2-0.2L154,18.5l2-0.2
			L155.7,16.1z"/>
		<path class="st0" d="M191.8,27.2c0.1,0.9-0.2,1.8-0.9,2.4c-0.7,0.6-1.7,0.9-2.6,0.8c-0.9,0.1-1.9-0.3-2.6-0.9
			c-0.6-0.7-0.9-1.6-0.8-2.5l0.1-10h2v-2.2l-6.2-0.1v2.2h1.9l-0.1,9.9c-0.1,1.6,0.4,3.1,1.5,4.2c0.5,0.5,1.1,0.9,1.8,1.1
			c0.8,0.3,1.6,0.4,2.4,0.4h0.1c1.5,0.1,3-0.4,4.1-1.5c1-1.1,1.6-2.7,1.5-4.2l0.1-9.9h1.9v-2.2h-4.3L191.8,27.2z"/>
		
			<rect x="221.6" y="13.5" transform="matrix(0.1241 -0.9923 0.9923 0.1241 180.7368 233.8738)" class="st0" width="2.4" height="2.1"/>
		<polygon class="st0" points="221.3,16.9 219.4,32.2 217.5,32 217.2,34.2 223.4,34.9 223.6,32.8 221.7,32.5 223.6,17.2 		"/>
		<path class="st0" d="M257.4,37.5c-0.2-0.9-0.5-1.7-0.8-2.6c-0.4-1.3-0.8-2.5-1.2-3.8s-0.8-2.7-1.2-4.1s-0.8-2.8-1.2-4.2l-0.1-0.2
			l-4.3-1.1l-0.6,2.1l2,0.5l-3.9,14.9l4.1,1.1L251,38l-2.1-0.5l2.9-11.1l4.6,15.5l1.9,0.5l3.9-15.1l1.9,0.5l0.5-2.1l-4-1L257.4,37.5
			z"/>
		<polygon class="st0" points="289,34.4 288,36.3 289.8,37.2 283.3,51.2 293.6,55.9 294.5,53.9 286.4,50.2 288.8,45 294.5,47.6 
			295.4,45.6 289.7,43 291.9,38.1 298.2,41 297,43.7 298.9,44.6 301,39.9 		"/>
		<path class="st0" d="M175.4,100.5c-2.2,2.3-3.5,5.3-3.4,8.5c0,2.1,0.5,4.2,1.6,6c1,1.8,2.4,3.3,4.2,4.3c3.6,2,8,2,11.6,0
			c1.8-1,3.2-2.5,4.2-4.3c1-1.8,1.6-3.9,1.6-6c0-3.2-1.2-6.3-3.4-8.5c-4.3-4.5-11.4-4.7-15.9-0.4
			C175.7,100.2,175.6,100.3,175.4,100.5L175.4,100.5z"/>
		<path class="st0" d="M272.4,100.5c-2.2,2.3-3.5,5.3-3.4,8.5c0,2.1,0.5,4.2,1.6,6c1,1.8,2.4,3.3,4.2,4.3c3.6,2,8,2,11.6,0
			c1.8-1,3.2-2.5,4.2-4.3c1-1.8,1.6-3.9,1.6-6c0.1-3.2-1.2-6.3-3.4-8.5c-4.3-4.5-11.4-4.7-15.9-0.4
			C272.7,100.2,272.6,100.3,272.4,100.5L272.4,100.5z"/>
		<path class="st0" d="M362.7,78.5c-9.7-22-32.5-41.9-64.4-56.1C265.5,7.7,226,0,184,0S102.5,7.7,69.7,22.4
			C37.9,36.5,15,56.5,5.4,78.5c-7.2,15.8-7.2,33.9,0,49.7c9.7,22,32.5,41.9,64.3,56.1c32.8,14.6,72.3,22.3,114.3,22.3
			s81.5-7.7,114.3-22.3c31.8-14.2,54.7-34.1,64.4-56.1C369.9,112.3,369.9,94.2,362.7,78.5L362.7,78.5z M71.2,26.3
			C103.4,11.7,142.4,4,183.8,4s80.4,7.7,112.6,22.3C322.4,38,342,53.7,353,71H14.6C25.5,53.7,45.2,38,71.2,26.3z M314.7,97.3v-3.5
			h5.2V82.7h4v11.1h6.1v3.5h-6.1v26.5h-4V97.3L314.7,97.3z M306,94.3c1.2-0.8,2.6-1.3,4.1-1.3c1,0,2.1,0.3,3,0.8l0.5,0.2l-2.1,3.4
			l-0.4-0.2c-0.5-0.2-1.1-0.4-1.7-0.4c-1.4,0.1-2.7,0.6-3.6,1.6c-1.3,1.3-2.3,3-2.7,4.9c-0.5,1.7-0.7,5.1-0.7,10.3v10.2h-4.1v-30
			h4.1V98C303.4,96.6,304.6,95.3,306,94.3L306,94.3z M296.2,108.9c0,4.1-1.5,8-4.4,11c-6.1,6.2-16.2,6.3-22.4,0.1
			c0,0-0.1-0.1-0.1-0.1c-5.7-6.1-5.8-15.6-0.2-21.8c5.9-6.4,15.8-6.7,22.2-0.8c0.3,0.3,0.6,0.6,0.8,0.8
			C294.8,101,296.3,104.9,296.2,108.9L296.2,108.9z M264.2,93.8v3.5H258v26.5h-4V97.3h-4v-3.5h4v-4.6c-0.1-1.6,0.1-3.1,0.6-4.6
			c0.4-0.9,1.1-1.7,2-2.2c1.8-1,4.2-1.1,7.6-0.2l0.4,0.1v3.9l-0.7-0.3c-2.1-0.8-3.8-0.9-4.9-0.2c-0.4,0.2-0.7,0.6-0.9,1
			c-0.2,1-0.2,2.1-0.2,3.1v3.9L264.2,93.8z M242.8,100.9c-0.4-1.2-1.2-2.2-2.3-2.9c-1.2-0.7-2.5-1.1-3.9-1.1c-1.8,0-3.5,0.6-5,1.6
			c-1.5,1.1-2.7,2.6-3.4,4.4c-0.7,1.8-1.1,4.9-1.1,9.1v11.8h-4v-15.3c0-3.6-0.2-6-0.7-7.3c-0.4-1.2-1.2-2.3-2.3-3.1
			c-1.2-0.8-2.5-1.2-3.9-1.2c-1.8,0-3.5,0.6-4.9,1.6c-1.5,1.1-2.7,2.6-3.4,4.3c-0.7,1.8-1.1,4.5-1.1,8.3v12.7h-4v-30h4v5
			c1.1-1.6,2.4-2.9,4-4c1.9-1.1,4-1.8,6.2-1.8c1.4,0,2.8,0.3,4.1,0.8c1.2,0.5,2.3,1.3,3.2,2.3c0.9,1.2,1.6,2.5,2.1,3.9
			c1.1-2.1,2.7-3.9,4.7-5.2c1.9-1.2,4-1.8,6.2-1.8c1.9,0,3.9,0.5,5.5,1.6c1.6,1.1,2.8,2.6,3.6,4.4c0.9,2.7,1.3,5.6,1.1,8.4v16.4
			h-4.1v-16.4C243.6,105.2,243.4,103,242.8,100.9z M199.2,108.9c0,4.1-1.5,8-4.4,11c-6.1,6.2-16.2,6.3-22.4,0.1c0,0-0.1-0.1-0.1-0.1
			c-5.7-6.1-5.8-15.6-0.2-21.8c5.9-6.4,15.8-6.7,22.2-0.8c0.3,0.3,0.6,0.6,0.8,0.8C197.8,101,199.3,104.9,199.2,108.9L199.2,108.9z
			 M135.3,115.9c3.4,3.3,8,5.1,12.7,5c5.3,0.1,10.4-2.3,13.9-6.3l0.3-0.3l3.3,2.5l-0.3,0.4c-2,2.4-4.5,4.3-7.3,5.6
			c-3.2,1.4-6.6,2.2-10.1,2.1c-7,0-12.7-2.4-16.8-7.1c-3.4-4-5.3-9.1-5.1-14.4c-0.1-5.7,2.1-11.1,6.2-15c4.2-4,9.8-6.2,15.6-6.1
			c3.6,0,7.1,0.7,10.3,2.3c2.9,1.4,5.3,3.5,7.2,6l0.3,0.4l-3.3,2.5l-0.3-0.4c-1.6-2-3.7-3.7-6-4.8c-2.5-1.2-5.3-1.8-8.1-1.8
			c-3.1,0-6.2,0.8-8.9,2.3c-2.6,1.5-4.8,3.6-6.4,6.2c-1.5,2.7-2.3,5.7-2.2,8.8c-0.1,4.6,1.7,9,4.9,12.3L135.3,115.9z M125.8,121.7
			c0.1,2-1.5,3.6-3.4,3.7c-1.7,0-3.1-1.4-3.1-3.1c0-0.1,0-0.1,0-0.2c-0.1-1.9,1.4-3.6,3.4-3.7c1.7,0,3.1,1.4,3.1,3.1
			C125.8,121.6,125.8,121.7,125.8,121.7L125.8,121.7z M100.4,99.4c-0.1-0.1-0.2-0.2-0.5-0.2c-1.5,0-3.2,3.2-4.9,6.8l-0.2,0.4l-3-1.3
			l0.2-0.4c2.9-6.6,5.6-9.4,9-9.4c2.8,0,4.4,2,4.4,5.6c0,1.7-0.3,3.3-0.7,4.9c3.3-6.6,6.3-10.6,9.9-10.6c2.2-0.1,4,1.7,4,3.8
			c0,0.1,0,0.2,0,0.3c0,2.7-1.8,4.9-3.9,4.9c-0.8,0-1.7-0.3-2.2-0.9c-0.5-0.6-0.8-1.4-0.9-2.2c-2.6,2-7.2,9.4-10.9,23.2l-0.1,0.4
			h-6.1l5.4-20.2C100.9,100.9,100.7,99.8,100.4,99.4z M58.3,90.3C58,90,57.5,89.9,57,89.9h-0.5v-1.4H57c2.2-0.2,4.5-0.6,6.6-1.1
			l1-0.2c0.2,0,0.4-0.1,0.6-0.1l1-0.3l-0.3,0.9c-0.1,0.4-0.6,1.6-1,3.1s-2.2,8.8-3.9,15.8l-1,3.4c-1,4.3-2.6,8.4-4.7,12.3
			c1.9,0.4,3.9,0.6,5.9,0.6c2,0,4.1-0.2,6.1-0.7c10.5-2.6,14.6-12.7,15-20.6c0.4-7.7-4.9-16.5-14.3-17.8c-1.2-0.2-2.4-0.2-3.6-0.2
			c-5,0-9.4,1.6-15.2,5.5c-3.8,2.5-6.6,6.2-8.1,10.5c-0.8,2.4-0.9,5.1-0.3,7.6c0.6,1.8,1.9,3.3,3.7,4.1c0.3,0.2,0.6,0.4,0.9,0.6
			c0.5,0.4,0.9,1,0.9,1.7c0,0.6-0.2,1.1-0.6,1.6c-0.4,0.4-1,0.7-1.6,0.7c-1-0.1-1.9-0.4-2.6-1.1c-1-0.8-2.4-2.1-3.3-6
			c-0.3-1.2-2.5-11.5,8.5-20.3c5.7-4.7,12.8-7.2,20.2-7.2c3.4,0,6.8,0.6,10.1,1.7c7.4,2.6,11.5,8.2,12.2,16.5
			c0.8,9-5.4,16.3-6.6,17.7c-4.2,4.4-9.7,7.3-15.7,8.2c-1.3,0.2-2.7,0.3-4.1,0.3c-2.7,0-5.6-0.3-7.9-0.5c-1.2-0.1-2.2-0.2-2.9-0.2
			s-2,0-3.4,0c-1.6,0-3.1,0-3.9,0H44l0.1-1.9h0.4c5-0.3,5.2-1.1,7.1-6L52,116c2.2-5.7,6.2-23.8,6.4-25.2
			C58.5,90.6,58.4,90.4,58.3,90.3z M296.4,180.3c-32.3,14.6-71.2,22.3-112.6,22.3s-80.4-7.7-112.6-22.3
			c-25.9-11.8-45.6-27.4-56.6-44.7H353C342,152.9,322.4,168.5,296.4,180.3L296.4,180.3z"/>
		<path class="st0" d="M211.2,169.8c-0.6-3.1-2.3-5.8-4.9-7.6c-0.8-0.5-1.6-1-2.5-1.3c-0.6-2.6-2.2-4.9-4.4-6.5
			c-1.8-1.2-3.9-1.9-6.1-1.9c-1.9,0-3.8,0.5-5.5,1.5c-8-4.6-18.2-1.9-22.9,6.1c-0.3,0.6-0.6,1.2-0.9,1.8l-0.1,0.3
			c-3.4,2.1-5.6,5.8-5.6,9.8c-0.1,6.4,4.9,11.7,11.2,12.1c3.2,3,8.7,4.7,14.9,4.7s11.9-1.8,15.1-4.8l0,0c6.7-0.1,12-5.6,11.9-12.2
			C211.3,171.1,211.3,170.5,211.2,169.8L211.2,169.8z M197.9,180.6l-0.1,0.1c-2.3,2.9-7.3,4.6-13.4,4.6s-11-1.7-13.4-4.6l-0.2-0.1
			h-0.2c-0.2,0-0.4,0-0.6,0h-0.1c-4.6-0.1-8.3-3.9-8.2-8.6c0.1-3.2,1.9-6.1,4.8-7.4h0.1c1.9-0.8,4-1.1,6.1-0.9c0.2,0,0.3,0,0.4-0.1
			h0.1v-0.2c0.1-0.5,0-1-0.3-1.4l-0.1-0.1c-1.3-0.7-2.8-1.1-4.3-1.1c4.1-5.7,11.9-7.3,17.9-3.6c0.9,0.6,1.7,1.3,2.4,2.1
			c0.3,0.4,0.6,0.7,0.8,0.9l0.1,0.1c0.1,0.1,0.1,0.2,0.2,0.3l0.1,0.1h0.3l0,0h0.1c0.4-0.1,0.6-0.4,0.8-0.7V160v-0.1
			c-0.2-1.1-0.6-2.2-1.2-3.1c3.6-1.8,8-0.4,9.9,3.3c0.2,0.3,0.3,0.7,0.4,1.1c-1.4,0.3-2.7,0.9-3.9,1.8l-0.1,0.1
			c-0.1,0.3-0.1,0.7,0.1,1.1c0,0.1,0.1,0.1,0.1,0.1l0.2,0.1h0.1c0.7,0,1.5-0.2,2.2-0.4c0.7-0.1,1.3-0.1,2,0c0.5,0,0.9,0.1,1.4,0.2
			c4.3,1.6,6.6,6.4,5,10.8c-0.2,0.7-0.6,1.3-1,1.9l0,0c-0.3,0.4-0.6,0.8-1,1.2c-1.6,1.7-3.7,2.6-6,2.6H198L197.9,180.6z"/>
		<g>
			<g>
				<path class="st0" d="M337.2,88.8c-2.2,0-4.3-1.7-4.3-4.3c0-2.5,2-4.3,4.3-4.3c2.5,0,4.3,2,4.3,4.3
					C341.5,86.9,339.6,88.8,337.2,88.8z M337.2,80.7c-2.2,0-3.9,1.8-3.9,3.9c0,2.2,1.8,3.9,3.9,3.9c2.2,0,3.9-1.7,3.9-3.9
					C341.1,82.4,339.5,80.7,337.2,80.7z M337.2,81.8c0.6,0,0.9,0,1.3,0.1c0.6,0.2,0.9,0.7,0.9,1.2c0,0.7-0.4,1.1-1.1,1.3
					c0.4,0.2,0.6,0.4,0.8,1.1c0.1,0.8,0.2,1.1,0.4,1.6h-1.1c0-0.1-0.1-0.3-0.2-0.7c0-0.1-0.1-0.7-0.1-0.8c-0.1-0.8-0.5-0.8-1.2-0.8
					h-0.3v2.4h-1v-5.4H337.2z M336.4,84h0.8c0.4,0,1.2,0,1.2-0.7c0-0.2-0.1-0.5-0.4-0.6c-0.2-0.1-0.3-0.1-0.9-0.1h-0.6V84z"/>
			</g>
		</g>
		<g>
			<g>
				<path class="st0" d="M351,165.9c-2.6,0-4.9-2-4.9-4.9c0-2.9,2.3-5,4.9-5c2.9,0,5,2.3,5,5C355.9,163.7,353.8,165.9,351,165.9z
					 M351,156.4c-2.5,0-4.5,2-4.5,4.5c0,2.5,2,4.5,4.5,4.5c2.5,0,4.5-2,4.5-4.5C355.5,158.5,353.6,156.4,351,156.4z M350.9,157.8
					c0.6,0,1.1,0,1.5,0.2c0.7,0.2,1,0.8,1,1.4c0,0.8-0.5,1.3-1.3,1.5c0.5,0.2,0.8,0.5,0.9,1.3c0.1,0.9,0.2,1.3,0.5,1.9h-1.3
					c-0.1-0.1-0.2-0.3-0.3-0.9c0-0.1-0.1-0.8-0.2-1c-0.2-0.9-0.6-1-1.4-1H350v2.8h-1.1v-6.3H350.9z M350,160.3h0.9
					c0.4,0,1.3,0,1.3-0.9c0-0.2-0.1-0.6-0.4-0.7c-0.2-0.1-0.4-0.1-1.1-0.1H350V160.3z"/>
			</g>
		</g>
	</g>
</g>
</svg>
